<svg xmlns="http://www.w3.org/2000/svg" viewBox="0 0 219 219" width="37" height="37"><path d="M194 167c-1.5 0-3 0.1-4.4 0.4l-18.2-18.2c4.4-8.1 6.9-17.4 6.9-27.2 0-26.2-17.8-48.3-41.8-54.9V46.6c6-4.6 9.5-11.7 9.5-19.6 0-13.8-11.2-25-25-25S96 13.2 96 27c0 8.4 4.5 15.8 10.5 20.3v19.6c-20 5.3-35.1 20.8-40.3 40.5H44.6C40 101.7 32.9 98 25 98c-13.8 0-25 11.2-25 25s11.2 25 25 25c8.4 0 15.8-4.2 20.3-10.5h21.2c6.8 23.9 28.8 41.5 54.8 41.5 10.7 0 20.7-3 29.3-8.1l18.5 18.5c-0.1 0.9-0.1 1.7-0.1 2.6 0 13.8 11.2 25 25 25s25-11.2 25-25S207.8 167 194 167zM121.3 149c-14.9 0-27-12.1-27-27s12.1-27 27-27c14.9 0 27 12.1 27 27S136.2 149 121.3 149z" fill="#cfd8dc" stroke="#90a4ae" stroke-width="3" stroke-opacity="0.25"/></svg>