<?xml version="1.0" standalone="no"?>
<!DOCTYPE svg PUBLIC "-//W3C//DTD SVG 20010904//EN"
 "http://www.w3.org/TR/2001/REC-SVG-20010904/DTD/svg10.dtd">
<svg version="1.0" xmlns="http://www.w3.org/2000/svg"
 width="700.000000pt" height="700.000000pt" viewBox="0 0 700.000000 700.000000"
 preserveAspectRatio="xMidYMid meet">
<metadata>
Created by potrace 1.11, written by Peter Selinger 2001-2013
</metadata>
<g transform="translate(0.000000,700.000000) scale(0.100000,-0.100000)"
fill="#000000" stroke="none">
<path d="M3818 6935 c-2 -1 -28 -5 -58 -8 -288 -31 -559 -257 -650 -543 -30
-95 -32 -104 -36 -227 -4 -119 10 -198 53 -307 52 -128 148 -259 253 -342 l24
-19 1 -312 0 -312 -55 -19 c-339 -116 -544 -239 -766 -460 -207 -207 -363
-471 -449 -758 l-18 -58 -76 -1 c-42 0 -197 0 -345 -1 l-268 0 -67 64 c-128
126 -257 192 -430 223 -362 63 -734 -145 -870 -487 -45 -111 -61 -207 -56
-328 2 -58 7 -116 10 -130 3 -14 8 -35 11 -47 9 -44 72 -181 107 -234 111
-166 305 -302 477 -335 14 -3 43 -9 65 -14 57 -13 250 -5 317 14 155 42 277
115 389 233 l74 78 334 0 334 0 34 -95 c37 -104 134 -306 185 -385 180 -277
438 -510 725 -654 181 -90 405 -158 593 -178 140 -15 426 -9 520 12 14 3 41 8
60 11 131 23 312 87 455 159 l120 61 293 -293 294 -293 3 -98 c2 -53 6 -108 9
-122 3 -14 8 -38 12 -55 34 -172 167 -364 326 -471 58 -39 214 -115 233 -113
3 0 31 -5 63 -12 71 -15 229 -15 302 0 310 63 546 287 625 591 10 36 19 110
21 164 14 368 -215 684 -576 797 -64 20 -96 24 -220 24 l-145 0 -288 287 -288
287 44 93 c80 169 142 384 164 573 14 118 7 427 -12 495 -2 8 -6 31 -9 50 -12
77 -54 224 -96 330 -62 159 -200 389 -307 510 -125 143 -284 278 -444 378 -78
48 -251 132 -273 132 -8 0 -17 4 -20 9 -3 4 -41 19 -84 31 l-78 23 0 329 1
329 45 42 c167 157 248 338 254 567 6 212 -70 407 -224 573 -102 111 -296 213
-444 232 -47 7 -174 13 -178 10z m167 -2980 c232 -26 451 -157 593 -354 51
-70 111 -193 128 -263 2 -10 7 -28 10 -40 3 -13 8 -36 12 -53 14 -60 6 -277
-13 -350 -21 -82 -80 -215 -124 -278 -66 -96 -183 -207 -271 -256 -164 -91
-255 -115 -435 -115 -77 0 -151 2 -165 6 -14 3 -42 9 -63 13 -20 4 -40 11 -43
16 -3 5 -13 9 -22 9 -9 0 -45 13 -80 30 -179 85 -323 227 -411 407 -141 289
-103 650 97 903 133 170 327 286 532 319 109 18 142 19 255 6z"/>
</g>
</svg>
